<svg width="303" height="81" viewBox="0 0 303 81" fill="none" xmlns="http://www.w3.org/2000/svg">
<path d="M113.105 8.97097L87.3827 54.0032C80.5117 65.8153 88.7921 80.5796 101.477 80.5796H153.273C166.31 80.5796 174.238 65.8153 167.367 54.0032L141.469 8.97097C134.95 -2.65585 119.271 -2.65585 113.105 8.97097ZM138.474 10.8164L164.196 56.0333C167.72 62.4931 163.668 70.6136 156.268 70.6136H104.472C97.4248 70.6136 93.0201 62.4931 96.5439 56.0333L122.794 10.8164C126.494 4.54194 134.95 4.54194 138.474 10.8164Z" fill="#525665"/>
<path d="M128.261 20.4145L110.995 50.3131C108.353 54.9268 111.524 60.8331 116.633 60.8331H151.164C156.274 60.8331 159.445 54.9268 156.802 50.3131L139.713 20.2299C137.07 15.6162 130.904 15.6162 128.261 20.4145ZM139.36 27.4277L150.636 46.9909C151.517 48.8364 150.283 51.0512 148.522 51.0512H126.147C124.033 51.0512 122.976 48.8364 124.033 46.9909L135.308 27.4277C135.837 25.5822 138.479 25.5822 139.36 27.4277Z" fill="#525665"/>
<path d="M68.5332 53.8196C64.6576 53.8196 61.6627 52.5275 59.372 50.1286C57.0818 47.7292 55.8487 44.5916 55.8487 40.5314C55.8487 36.4711 57.0818 33.3336 59.372 30.9347C61.6627 28.5352 65.0099 27.2432 68.8856 27.2432C71.1763 27.2432 73.6426 27.7972 75.7566 29.0887C77.8711 30.3807 79.2805 31.8574 80.1613 34.0722L76.1089 36.4711C75.2281 35.1791 74.3473 34.0722 73.1141 33.3336C71.8809 32.4108 70.4716 32.0421 69.0617 32.0421C66.7716 32.0421 65.0099 32.9648 63.0721 34.441C61.6627 35.9177 60.7813 38.1325 60.7813 40.716C60.7813 43.2996 61.6627 44.9609 63.0721 46.9911C64.4814 48.4672 66.2431 49.3905 68.7094 49.3905C70.1193 49.3905 71.7048 49.0212 72.7618 48.0985C73.9949 47.1758 75.0519 46.253 75.7566 44.961L79.809 47.3598C78.9281 49.2059 77.5183 51.0514 75.4043 51.9741C73.2903 53.2662 71.1763 53.8196 68.5332 53.8196ZM41.5781 53.8196C37.7024 53.8196 34.707 52.5275 32.4169 50.1286C30.1267 47.7292 28.8935 44.5916 28.8935 40.5314C28.8935 36.4711 30.1267 33.3336 32.4169 30.9347C34.707 28.5352 38.0547 27.2432 41.9304 27.2432C44.2206 27.2432 46.6875 27.7972 48.8015 29.0887C50.9155 30.3807 52.3248 31.8574 53.2062 34.0722L49.1538 36.4711C48.273 35.1791 47.3921 34.0722 46.1589 33.3336C44.9252 32.4108 43.5159 32.0421 42.1066 32.0421C39.8164 32.0421 38.0547 32.9648 36.1164 34.441C34.707 35.9177 33.8262 38.1325 33.8262 40.716C33.8262 43.2996 34.707 44.9609 36.1164 46.9911C37.5262 48.4672 39.2879 49.3905 41.7542 49.3905C43.1636 49.3905 44.7491 49.0212 45.8066 48.0985C46.8636 47.1758 48.0968 46.253 48.8015 44.961L52.8533 47.3598C51.9725 49.2059 50.5631 51.0514 48.4491 51.9741C46.3351 53.2662 44.0444 53.8196 41.5781 53.8196ZM6.87105 46.6218C8.28038 48.0985 10.0421 49.0212 12.5089 49.0212C14.7991 49.0212 16.5608 48.0985 18.1463 46.6218C19.5556 45.1456 20.2603 42.9308 20.2603 40.3467C20.2603 37.7632 19.7318 36.1023 18.1463 34.0722C16.7369 32.5955 14.9753 31.6728 12.5089 31.6728C10.0421 31.6728 8.45655 32.5955 6.87105 34.0722C5.46171 35.9177 4.75704 37.7632 4.75704 40.3467C4.75704 42.9308 5.28554 44.7763 6.87105 46.6218ZM13.0374 27.2432C16.5608 27.2432 19.5556 28.5352 21.6701 31.3035C23.9603 33.7029 25.1935 37.2092 25.1935 40.9007C25.1935 44.5916 23.9603 47.7292 21.6701 50.4974C19.3794 52.8968 16.3846 54.1889 13.0374 54.1889C9.68972 54.1889 6.87104 52.7122 4.75704 49.944V53.2662H0V17.6465H5.10937V31.4881C7.04721 28.7199 9.68972 27.2432 13.0374 27.2432Z" fill="#525665"/>
<path d="M275.013 53.8191C272.899 53.8191 271.137 53.4504 269.728 52.5276C267.966 51.6049 266.732 50.3128 265.851 48.4673L269.023 45.3298C269.551 46.6213 270.785 47.5446 271.665 48.098C272.899 48.6515 273.956 49.0208 275.189 49.0208C276.422 49.0208 277.303 48.6515 278.184 48.098C279.065 47.5446 279.417 46.806 279.417 45.8832C279.417 44.5912 278.889 43.6685 277.303 43.115C276.951 42.7457 275.894 42.5611 274.308 41.823C272.899 41.2696 271.665 40.5309 271.313 40.3468C268.671 38.8701 267.437 37.0246 267.437 34.0718C267.437 31.857 268.318 30.3803 269.728 28.7194C271.137 27.4274 273.251 26.5046 275.718 26.5046C279.241 26.5046 281.884 27.7967 283.646 30.5649L280.65 33.7024C279.241 31.8569 277.48 30.9342 275.366 30.9342C274.484 30.9342 273.603 31.303 273.075 31.857C272.546 32.4104 272.194 33.149 272.194 33.7024C272.194 34.9945 272.722 35.9172 274.308 36.4707L276.599 37.7627C278.008 38.3167 279.241 39.0548 280.122 39.2394C282.765 40.7156 284.174 42.9304 284.174 45.6986C284.174 47.9134 283.294 49.7589 281.531 51.2356C279.77 53.2657 277.656 53.8191 275.013 53.8191ZM251.053 31.4877C249.291 31.4877 247.529 32.0416 246.296 33.3331C245.063 34.6252 244.182 36.1019 244.006 37.9474H258.1C257.747 36.1019 257.219 34.2564 255.809 33.3331C254.224 32.2263 252.815 31.4877 251.053 31.4877ZM262.857 40.1622C262.857 41.0849 262.857 41.6383 262.504 42.5611H243.653C244.006 44.7759 244.886 46.2525 246.296 47.5446C247.705 48.8361 249.467 49.3901 251.934 49.3901C253.343 49.3901 254.929 49.0208 256.338 48.8361C257.747 48.2827 259.333 47.5446 260.214 46.9907L262.328 50.6816C259.333 53.081 255.809 54.0038 251.758 54.0038C247.705 54.0038 244.358 52.7117 242.067 49.9435C239.953 47.5446 238.896 44.0378 238.896 40.3468C238.896 36.6553 240.129 33.149 242.42 30.7496C244.71 28.3501 247.705 27.0586 251.229 27.0586C254.752 27.0586 257.747 28.3501 259.862 30.3803C261.623 33.149 262.857 36.1019 262.857 40.1622ZM224.802 46.0679L231.849 27.7967H237.135L226.564 53.081H223.04L212.47 27.7967H218.108L224.802 46.0679ZM192.913 53.2657H187.981V27.7967H192.737V31.4877C193.266 30.1956 194.5 29.0888 195.909 28.3501C197.318 27.7967 198.904 27.0586 200.665 27.0586C203.308 27.0586 205.599 27.9814 207.536 29.8268C209.299 31.6723 210.179 34.4405 210.179 37.9474V53.4504H205.246V39.6082C205.246 37.3934 204.718 35.5479 203.837 34.2564C202.604 32.9643 201.547 32.4104 199.785 32.4104C198.023 32.4104 196.614 32.9644 195.028 34.6252C193.619 36.1019 193.266 37.7627 193.266 39.9775L192.913 53.2657ZM181.286 53.2657H176.353V27.7967H181.286V53.2657ZM178.996 24.4745C178.115 24.4745 177.234 24.1052 176.706 23.5518C176.177 22.9983 175.824 22.0751 175.824 21.1523C175.824 20.2296 176.177 19.3069 176.706 18.7534C177.234 18.1995 178.115 17.8307 178.996 17.8307C179.877 17.8307 180.757 18.1995 181.286 18.7534C181.814 19.3069 182.167 20.2296 182.167 21.1523C182.167 22.0751 181.814 22.9983 181.286 23.5518C180.757 24.1052 179.877 24.4745 178.996 24.4745Z" fill="#525665"/>
<path d="M300.385 47.5447L302.147 51.605C300.385 53.0817 298.095 53.8198 295.276 53.8198C292.634 53.8198 290.519 52.8971 289.286 51.4209C288.053 49.9442 287.172 47.7294 287.172 44.9612V27.9815V18.9382H292.105V27.9815H300.385V32.2264H292.457V44.2231C292.457 47.3601 293.691 49.2061 296.333 49.2061C297.39 49.2061 298.976 48.8368 300.385 47.5447Z" fill="#525665"/>
</svg>
